<svg width="150" height="28" viewBox="0 0 150 28" fill="none" xmlns="http://www.w3.org/2000/svg">
<path d="M0 21.4991V0H4.80473V17.5576H19.2703V21.4991H0Z" fill="#282828"/>
<path d="M32.0658 5.04205C38.3865 5.09324 41.5725 7.52468 41.5725 12.362V21.5247H37.3073V18.1207C35.6115 20.6289 32.8109 21.9086 28.8541 21.9086C26.4389 21.9086 24.5889 21.4735 23.3556 20.5777C22.1223 19.6819 21.48 18.5302 21.48 17.0969C21.48 15.5101 22.2251 14.3071 23.741 13.5393C25.257 12.7715 27.518 12.2852 30.5756 12.106L36.9476 11.6965V11.415C36.9476 10.4424 36.5365 9.649 35.74 9.06033C34.9178 8.47166 33.7102 8.19013 32.0658 8.19013C29.2395 8.19013 27.5437 8.93236 27.0041 10.3912H22.6876C22.8417 9.11152 23.407 8.03656 24.332 7.21755C25.257 6.39854 26.3618 5.83547 27.6722 5.50274C28.9569 5.17002 30.4471 5.01645 32.0915 5.04205H32.0658ZM30.0874 18.7349C32.1686 18.7349 33.8387 18.351 35.072 17.5832C36.331 16.8154 36.9476 15.894 36.9476 14.7934V14.2303L31.1408 14.6399C29.4193 14.7422 28.1347 14.9726 27.2868 15.3053C26.4389 15.638 26.0278 16.1499 26.0278 16.7898C26.0278 17.3784 26.3618 17.8647 27.0555 18.1974C27.7236 18.5558 28.7513 18.7093 30.0874 18.7093V18.7349Z" fill="#282828"/>
<path d="M61.999 5.40035H66.2128V18.4278C66.2128 21.7806 65.3905 24.2121 63.7205 25.7477C62.0761 27.2578 59.481 28.0256 55.9353 28.0256C53.186 28.0256 50.9507 27.5649 49.2806 26.6179C47.5848 25.6709 46.6084 24.2632 46.3515 22.4205H50.7194C51.3104 23.8537 53.0576 24.5704 55.9353 24.5704C57.9394 24.5704 59.4039 24.1609 60.3032 23.3674C61.2025 22.574 61.6393 21.3199 61.6393 19.6307V18.0439C60.0463 20.0146 57.6053 20.9872 54.2909 20.9872C51.4389 20.9872 49.1521 20.2706 47.4049 18.8117C45.6835 17.3784 44.8099 15.4333 44.8099 13.0274C44.8099 10.6216 45.6835 8.6764 47.4049 7.24313C49.1264 5.80986 51.4389 5.06763 54.3166 5.06763C57.9137 5.06763 60.4574 6.19377 61.9733 8.42046V5.45154L61.999 5.40035ZM51.1305 16.4314C52.2611 17.3016 53.8027 17.7367 55.704 17.7367C57.6054 17.7367 59.147 17.3016 60.2775 16.4314C61.408 15.5612 61.999 14.4607 61.999 13.1298C61.999 11.7989 61.4337 10.6983 60.2775 9.80254C59.147 8.93234 57.6054 8.47165 55.704 8.47165C53.8027 8.47165 52.2611 8.90675 51.1305 9.80254C50 10.6727 49.4091 11.7989 49.4091 13.1298C49.4091 14.4607 49.9743 15.5612 51.1305 16.4314Z" fill="#282828"/>
<path d="M85.8171 5.40039H90.4162V21.4991H86.1511V17.3785C85.4316 18.8117 84.4039 19.9123 83.0421 20.7057C81.6804 21.4735 80.0617 21.883 78.2117 21.883C75.7194 21.883 73.8181 21.2176 72.4563 19.8611C71.0946 18.5046 70.4265 16.585 70.4265 14.0512V5.42598H75.0257V12.6691C75.0257 16.3035 76.6444 18.0951 79.9075 18.0951C81.8088 18.0951 83.2477 17.5064 84.2754 16.3035C85.3032 15.1006 85.8171 13.5649 85.8171 11.671V5.40039Z" fill="#282828"/>
<path d="M107.939 8.85553H102.518V15.1517C102.518 16.3034 102.724 17.0713 103.109 17.4808C103.494 17.8903 104.265 18.095 105.421 18.095C106.192 18.095 107.04 18.0438 107.939 17.9159V21.6014C106.835 21.7806 105.678 21.883 104.445 21.883C102.107 21.883 100.437 21.4223 99.409 20.5265C98.407 19.6051 97.8931 18.0694 97.8931 15.8683V8.85553H93.1655V5.4771H96.7112C97.2508 5.4771 97.6105 5.37473 97.8417 5.19557C98.073 5.01641 98.1757 4.68368 98.1757 4.22299V1.51001H102.492V5.40032H107.914V8.82994L107.939 8.85553Z" fill="#282828"/>
<path d="M142.266 5.04207C144.784 5.04207 146.711 5.68193 148.022 6.98723C149.332 8.26694 150 10.1609 150 12.6691V21.5247H145.401V14.1024C145.401 12.362 145.015 11.0567 144.27 10.1609C143.499 9.2907 142.292 8.83001 140.596 8.83001C138.695 8.83001 137.204 9.36749 136.177 10.4424C135.149 11.5174 134.635 12.9763 134.635 14.8446V21.4991H130.036V5.40039H134.25V9.26511C135.74 6.44975 138.386 5.01648 142.24 5.01648L142.266 5.04207Z" fill="#282828"/>
<path d="M124.563 22.0622C115.468 21.064 111.562 17.1993 111.562 10.7496V5.40039H126.156V14.1792L122.251 14.819C122.559 17.5576 125.334 18.5302 125.334 18.5302L124.563 22.0622Z" fill="#6A87EC"/>
</svg>
